<svg xmlns="http://www.w3.org/2000/svg" viewBox="0 0 64 64" fill="none" role="img" aria-label="Biquadia icon">
  <rect width="64" height="64" rx="18" fill="#0F141C"/>
  <rect x="0.5" y="0.5" width="63" height="63" rx="17.5" fill="none" stroke="white" stroke-opacity="0.06"/>
  <!-- accent glow -->
  <circle cx="32" cy="20" r="22" fill="#CE445D" opacity="0.18" style="filter: blur(10px)"/>
  <!-- rays -->
  <g stroke="#CE445D" stroke-width="2.3" stroke-linecap="round" opacity="0.95">
    <line x1="32" y1="5" x2="32" y2="9.5"/>
    <line x1="20.5" y1="8" x2="23.5" y2="11.3"/>
    <line x1="43.5" y1="8" x2="40.5" y2="11.3"/>
  </g>
  <!-- portal dome -->
  <path d="M14 28V20.2C14 11.8 20 6.8 32 6.8C44 6.8 50 11.8 50 20.2V28H14Z" fill="#CE445D"/>
  <!-- inner waveform (signal) -->
  <path d="M16 21.2H19L21.5 17L25 25L29.5 13L34 25L37.5 17L40 21.2H48" stroke="white" stroke-width="1.9" stroke-linecap="round" stroke-linejoin="round" opacity="0.95"/>
  <!-- threshold -->
  <rect x="10" y="31.5" width="44" height="5" rx="2.5" fill="white" opacity="0.95"/>
</svg>
