<svg xmlns="http://www.w3.org/2000/svg" viewBox="0 0 64 64" fill="none" role="img" aria-label="notiary app icon">
  <rect width="64" height="64" rx="18" fill="#0F141C"/>
  <rect x="0.5" y="0.5" width="63" height="63" rx="17.5" fill="none" stroke="white" stroke-opacity="0.06"/>
  <circle cx="32" cy="32" r="22" fill="#8B5CF6" opacity="0.18" style="filter: blur(10px)"/>
  <g transform="translate(8 8) scale(1.5)">
    <path d="M 16,2 C 16,10 10,16 2,16 C 10,16 16,22 16,30 C 16,22 22,16 30,16 C 22,16 16,10 16,2 Z M 16,11 A 5,5 0 1 0 16,21 A 5,5 0 1 0 16,11 Z" fill="#8B5CF6" fill-rule="evenodd" />
  </g>
  <g stroke="white" stroke-width="2" stroke-linecap="round">
        <line x1="24" y1="29.5" x2="35" y2="29.5" />
        <line x1="24" y1="34.5" x2="40" y2="34.5" />
      </g>
</svg>