<svg xmlns="http://www.w3.org/2000/svg" viewBox="0 0 64 64" fill="none" role="img" aria-label="Thumb-Dash icon">
  <rect width="64" height="64" rx="18" fill="#0F141C"/>
  <rect x="0.5" y="0.5" width="63" height="63" rx="17.5" fill="none" stroke="white" stroke-opacity="0.06"/>
  <circle cx="32" cy="20" r="22" fill="#F59E0B" opacity="0.18" style="filter: blur(10px)"/>
  <g stroke="#F59E0B" stroke-width="2.3" stroke-linecap="round" opacity="0.95">
    <line x1="32" y1="5" x2="32" y2="9.5"/>
    <line x1="20.5" y1="8" x2="23.5" y2="11.3"/>
    <line x1="43.5" y1="8" x2="40.5" y2="11.3"/>
  </g>
  <path d="M14 28V20.2C14 11.8 20 6.8 32 6.8C44 6.8 50 11.8 50 20.2V28H14Z" fill="#F59E0B"/>
  <!-- inner: dashboard bars -->
  <g fill="white" opacity="0.96">
    <rect x="19.5" y="19" width="3.2" height="5" rx="1" />
    <rect x="25.5" y="16.2" width="3.2" height="7.8" rx="1" />
    <rect x="31.5" y="18" width="3.2" height="6" rx="1" />
    <rect x="37.5" y="14.5" width="3.2" height="9.5" rx="1" />
  </g>
  <rect x="10" y="31.5" width="44" height="5" rx="2.5" fill="white" opacity="0.95"/>
</svg>
