<svg xmlns="http://www.w3.org/2000/svg" viewBox="0 0 64 64" fill="none" role="img" aria-label="thumbdash app icon">
  <rect width="64" height="64" rx="18" fill="#0F141C"/>
  <rect x="0.5" y="0.5" width="63" height="63" rx="17.5" fill="none" stroke="white" stroke-opacity="0.06"/>
  <circle cx="32" cy="32" r="22" fill="#F59E0B" opacity="0.18" style="filter: blur(10px)"/>
  <g transform="translate(8 8) scale(1.5)">
    <path d="M 16,2 C 16,10 10,16 2,16 C 10,16 16,22 16,30 C 16,22 22,16 30,16 C 22,16 16,10 16,2 Z M 16,11 A 5,5 0 1 0 16,21 A 5,5 0 1 0 16,11 Z" fill="#F59E0B" fill-rule="evenodd" />
  </g>
  <g fill="white">
        <rect x="23" y="28" width="4" height="8" rx="1.5" />
        <rect x="30" y="24" width="4" height="12" rx="1.5" />
        <rect x="37" y="27" width="4" height="9" rx="1.5" />
      </g>
</svg>