<svg xmlns="http://www.w3.org/2000/svg" viewBox="0 0 64 64" fill="none" role="img" aria-label="MakerPortal favicon">
  <rect width="64" height="64" rx="16" fill="#0F141C" />
  <rect x="0.5" y="0.5" width="63" height="63" rx="15.5" fill="none" stroke="white" stroke-opacity="0.08" />
  <circle cx="32" cy="30" r="16" fill="#CE445D" opacity="0.22" style="filter:blur(6px)" />
  <g transform="translate(9.776 4.891) scale(1.4972)">
    <g transform="rotate(-14 16 15) translate(-3 4)">
      <rect x="4" y="12" width="14" height="13" rx="3" fill="#1E354E" stroke="#2C4A67" stroke-width="0.6" />
      <line x1="7" y1="16" x2="14" y2="16" stroke="#D7E3F2" stroke-width="1.1" stroke-opacity="0.7" />
      <circle cx="6.5" cy="23" r="1" fill="#CE445D" />
    </g>
    <g transform="rotate(-7 16 15) translate(-1.5 2)">
      <rect x="7" y="6" width="14" height="14" rx="3" fill="#253E58" stroke="#345775" stroke-width="0.7" />
      <line x1="10" y1="10" x2="18" y2="10" stroke="#D7E3F2" stroke-width="1.2" stroke-opacity="0.85" />
      <circle cx="9.5" cy="18.5" r="1.1" fill="#CE445D" />
    </g>
    <g>
      <rect x="12" y="4" width="16" height="16" rx="3" fill="#2C4A67" stroke="#3E6689" stroke-width="0.8" />
      <line x1="15" y1="9" x2="24" y2="9" stroke="#D7E3F2" stroke-width="1.3" />
      <circle cx="14.8" cy="18.2" r="1.25" fill="#CE445D" />
    </g></g>
</svg>